<svg width="48" height="35" viewBox="0 0 48 35" fill="none" xmlns="http://www.w3.org/2000/svg">
<mask id="path-1-inside-1" fill="white">
<path fill-rule="evenodd" clip-rule="evenodd" d="M18.3541 0C17.5363 0 16.8008 0.497903 16.4971 1.25722L15 5H8C3.58172 5 0 8.58172 0 13V27C0 31.4183 3.58172 35 8 35H40C44.4183 35 48 31.4183 48 27V13C48 8.58172 44.4183 5 40 5H33L31.5029 1.25722C31.1992 0.497902 30.4637 0 29.6459 0H18.3541Z"/>
</mask>
<path d="M16.4971 1.25722L19.2825 2.37139V2.37139L16.4971 1.25722ZM15 5V8H17.0311L17.7854 6.11417L15 5ZM33 5L30.2146 6.11417L30.9689 8H33V5ZM31.5029 1.25722L28.7175 2.37139V2.37139L31.5029 1.25722ZM19.2825 2.37139C19.1307 2.75105 18.763 3 18.3541 3V-3C16.3095 -3 14.471 -1.75524 13.7117 0.143049L19.2825 2.37139ZM17.7854 6.11417L19.2825 2.37139L13.7117 0.143047L12.2146 3.88583L17.7854 6.11417ZM8 8H15V2H8V8ZM3 13C3 10.2386 5.23858 8 8 8V2C1.92487 2 -3 6.92487 -3 13H3ZM3 27V13H-3V27H3ZM8 32C5.23858 32 3 29.7614 3 27H-3C-3 33.0751 1.92487 38 8 38V32ZM40 32H8V38H40V32ZM45 27C45 29.7614 42.7614 32 40 32V38C46.0751 38 51 33.0751 51 27H45ZM45 13V27H51V13H45ZM40 8C42.7614 8 45 10.2386 45 13H51C51 6.92487 46.0751 2 40 2V8ZM33 8H40V2H33V8ZM28.7175 2.37139L30.2146 6.11417L35.7854 3.88583L34.2883 0.143047L28.7175 2.37139ZM29.6459 3C29.237 3 28.8693 2.75105 28.7175 2.37139L34.2883 0.143048C33.529 -1.75525 31.6905 -3 29.6459 -3V3ZM18.3541 3H29.6459V-3H18.3541V3Z" fill="#152C5B" mask="url(#path-1-inside-1)"/>
<circle cx="24" cy="19" r="8" fill="#3252DF"/>
<path d="M35 12H41" stroke="#152C5B" stroke-width="3" stroke-linecap="round"/>
</svg>
