<svg width="32" height="47" viewBox="0 0 32 47" fill="none" xmlns="http://www.w3.org/2000/svg">
<path d="M30.5 39.5C30.5 40.6457 29.4516 42.1445 26.6771 43.4451C24.0221 44.6896 20.2488 45.5 16 45.5C11.7512 45.5 7.97793 44.6896 5.32294 43.4451C2.54839 42.1445 1.5 40.6457 1.5 39.5C1.5 38.3543 2.54839 36.8555 5.32294 35.5549C7.97793 34.3104 11.7512 33.5 16 33.5C20.2488 33.5 24.0221 34.3104 26.6771 35.5549C29.4516 36.8555 30.5 38.3543 30.5 39.5Z" stroke="#152C5B" stroke-width="3"/>
<path d="M28.5 14C28.5 17.5956 27.0057 24.1358 24.5255 29.7976C23.2909 32.6161 21.8547 35.1156 20.3173 36.8846C18.7519 38.6857 17.2885 39.5 16 39.5C14.7115 39.5 13.2481 38.6857 11.6827 36.8846C10.1453 35.1156 8.7091 32.6161 7.47446 29.7976C4.99428 24.1358 3.5 17.5956 3.5 14C3.5 7.09644 9.09644 1.5 16 1.5C22.9036 1.5 28.5 7.09644 28.5 14Z" fill="white" stroke="#152C5B" stroke-width="3"/>
<path d="M20.5 14C20.5 16.4853 18.4853 18.5 16 18.5C13.5147 18.5 11.5 16.4853 11.5 14C11.5 11.5147 13.5147 9.5 16 9.5C18.4853 9.5 20.5 11.5147 20.5 14Z" fill="#3252DF" stroke="#3252DF" stroke-width="3"/>
</svg>
