<svg width="36" height="36" viewBox="0 0 36 36" fill="none" xmlns="http://www.w3.org/2000/svg">
<path d="M16.0979 5.8541C16.6966 4.01148 19.3034 4.01148 19.9021 5.8541L21.5922 11.0557C21.86 11.8798 22.6279 12.4377 23.4943 12.4377H28.9636C30.9011 12.4377 31.7066 14.9169 30.1392 16.0557L25.7145 19.2705C25.0135 19.7798 24.7202 20.6825 24.9879 21.5066L26.678 26.7082C27.2767 28.5508 25.1678 30.0831 23.6003 28.9443L19.1756 25.7295C18.4746 25.2202 17.5254 25.2202 16.8244 25.7295L12.3997 28.9443C10.8322 30.0831 8.72327 28.5508 9.32198 26.7082L11.0121 21.5066C11.2798 20.6825 10.9865 19.7798 10.2855 19.2705L5.86078 16.0557C4.29336 14.9169 5.0989 12.4377 7.03635 12.4377H12.5057C13.3721 12.4377 14.14 11.8798 14.4078 11.0557L16.0979 5.8541Z" fill="#FFCC47"/>
</svg>
