<svg width="43" height="33" viewBox="0 0 43 33" fill="none" xmlns="http://www.w3.org/2000/svg">
<path d="M11 21C13.5681 17.9431 17.4193 16 21.7242 16C26.0292 16 29.8803 17.9431 32.4485 21" stroke="#152C5B" stroke-width="3" stroke-linecap="round" stroke-linejoin="round"/>
<path d="M6 16C9.7118 11.7203 15.2779 9 21.5 9C27.7221 9 33.2882 11.7203 37 16" stroke="#152C5B" stroke-width="3" stroke-linecap="round" stroke-linejoin="round"/>
<path d="M2 11C6.66969 5.4975 13.6722 2 21.5 2C29.3278 2 36.3303 5.4975 41 11" stroke="#152C5B" stroke-width="3" stroke-linecap="round" stroke-linejoin="round"/>
<path d="M26.2242 27C26.2242 29.4853 24.2095 31.5 21.7242 31.5C19.239 31.5 17.2242 29.4853 17.2242 27C17.2242 24.5147 19.239 22.5 21.7242 22.5C24.2095 22.5 26.2242 24.5147 26.2242 27Z" fill="#3252DF" stroke="#3252DF" stroke-width="3"/>
</svg>
